<svg width="100" height="19" fill="none" xmlns="http://www.w3.org/2000/svg"><path fill-rule="evenodd" clip-rule="evenodd" d="M10.858 0a12.9 12.9 0 0 0-.53.014h-.003a9.174 9.174 0 0 0-8.37 6.634 9.313 9.313 0 0 0-.374 2.55v.067c0 .713.156 1.523.278 2.059v.003l.001.004c.01.037.02.072.037.112.074.277.157.551.256.825a15.01 15.01 0 0 1-.733 1.206 48.825 48.825 0 0 1-1.112 1.619 2.153 2.153 0 0 0-.025 2.178v.001a2.165 2.165 0 0 0 1.874 1.088h8.072l.015.001a9.162 9.162 0 0 0 7.001-2.678 9.176 9.176 0 0 0 2.735-6.494v-.065a8.66 8.66 0 0 0-.206-1.728l-.004-.02-.006-.019v-.001l-.002-.004-.004-.016v-.001a8.711 8.711 0 0 0-.291-1.08.848.848 0 0 0 .025-.076c.021-.07.093-.223.222-.452.125-.22.286-.485.465-.767a42.08 42.08 0 0 1 1.095-1.628l.015-.021.006-.012a2.166 2.166 0 0 0 .034-2.194 2.148 2.148 0 0 0-1.875-1.09H11.36l-.016-.001C11.185.007 11.022 0 10.858 0ZM3.575 7.057a7.486 7.486 0 0 1 6.84-5.389c.157-.007.304-.014.443-.014.14 0 .287.007.436.014h8.174a.504.504 0 0 1 .439.739c-.375.53-.7 1.095-1.016 1.641l-.008.014c-.324.561-.636 1.102-.993 1.602a.837.837 0 0 0-.109.784l.001.003.001.003c.155.404.277.838.366 1.274l.002.008.001.008.014.049.003.013.003.008c.102.521.154.975.154 1.317v.055c-.028 4.152-3.437 7.534-7.588 7.534-.139 0-.287-.006-.436-.013H2.164a.497.497 0 0 1-.432-.248v-.002l-.002-.002a.505.505 0 0 1-.01-.476l.038-.054c.2-.283.63-.89 1.047-1.526.228-.347.455-.707.639-1.028.177-.31.331-.612.398-.84a.798.798 0 0 0-.025-.555 8.033 8.033 0 0 1-.33-1.034l-.004-.013-.02-.059c-.143-.652-.214-1.198-.214-1.605V9.21a7.604 7.604 0 0 1 .311-2.096l.015-.048v-.009Z" fill="#0043E0"/><path fill-rule="evenodd" clip-rule="evenodd" d="M7.66 9.28a3.176 3.176 0 0 0 3.17 3.17A3.176 3.176 0 0 0 14 9.28a3.176 3.176 0 0 0-3.17-3.172 3.176 3.176 0 0 0-3.17 3.171Zm1.712 0c0-.809.65-1.46 1.458-1.46.797 0 1.458.652 1.458 1.46 0 .807-.65 1.458-1.458 1.458-.808 0-1.458-.65-1.458-1.459Z" fill="#0043E0"/><path d="M10.228 4.728a.849.849 0 1 0-.214-1.684 6.286 6.286 0 0 0-3.653 1.79.849.849 0 1 0 1.2 1.201 4.588 4.588 0 0 1 2.667-1.307ZM11.835 3.874a.849.849 0 0 1 1.085-.514 6.286 6.286 0 0 1 4.171 5.92.849.849 0 0 1-1.698 0 4.588 4.588 0 0 0-3.044-4.321.849.849 0 0 1-.514-1.085ZM15.91 11.334c.403.24.535.761.294 1.164a6.288 6.288 0 0 1-1.207 1.465.849.849 0 0 1-1.132-1.265c.344-.308.642-.668.881-1.07a.849.849 0 0 1 1.164-.294ZM7.76 13.863a.849.849 0 0 1 1.126-.416c.77.354 1.624.489 2.466.388a.849.849 0 1 1 .202 1.685 6.285 6.285 0 0 1-3.378-.531.849.849 0 0 1-.416-1.126ZM6.43 7.896a.849.849 0 0 0-1.618-.512 6.286 6.286 0 0 0-.275 2.367.849.849 0 1 0 1.693-.127 4.588 4.588 0 0 1 .2-1.728Z" fill="#0043E0"/><path d="m26.44 14.73 4.556-11.115h3.128l4.493 11.115h-2.953l-1.016-2.684h-4.335l-1.032 2.684H26.44Zm4.699-4.859h2.7l-1.334-3.557-1.366 3.557ZM41.498 6.33v4.827c0 .455.137.826.413 1.111.285.276.656.413 1.111.413.328 0 .62-.058.873-.174.254-.117.466-.28.636-.492V6.33h2.572v8.4H44.53v-.572a3.509 3.509 0 0 1-1.048.54c-.381.127-.784.19-1.207.19-.985 0-1.79-.317-2.414-.952-.624-.635-.937-1.445-.937-2.43V6.33h2.573ZM49.887 12.173v-3.7h-1.7V6.33h1.7V4.17l2.572-.555V6.33h2.35v2.144h-2.35v3.191c0 .37.08.635.238.794.17.148.46.222.873.222.201 0 .392-.01.572-.031.18-.032.376-.08.587-.143v2.08c-.233.074-.529.132-.889.174-.36.053-.661.08-.905.08-1.005 0-1.768-.223-2.286-.667-.508-.455-.762-1.122-.762-2ZM55.813 14.73V3.615l2.572-.556v3.843a3.553 3.553 0 0 1 1.032-.54c.392-.127.8-.19 1.223-.19.984 0 1.789.317 2.413.952.625.635.937 1.445.937 2.43v5.176h-2.572V9.903c0-.455-.143-.82-.429-1.096-.275-.286-.64-.429-1.095-.429-.328 0-.62.059-.874.175-.254.117-.465.28-.635.492v5.685h-2.572ZM69.41 14.761a4.26 4.26 0 0 1-3.033-1.239 4.454 4.454 0 0 1-.905-1.365 4.304 4.304 0 0 1-.333-1.683c0-.592.11-1.148.333-1.667.233-.519.545-.968.937-1.35a4.404 4.404 0 0 1 3.096-1.238c.381 0 .752.048 1.112.143.36.095.693.233 1 .413V6.33h2.54v8.32c0 1.133-.375 2-1.127 2.604-.752.614-1.826.921-3.223.921a9.457 9.457 0 0 1-1.922-.19 7.51 7.51 0 0 1-1.667-.54l.858-2c.455.21.905.37 1.35.476.444.105.888.158 1.333.158.603 0 1.059-.122 1.366-.365.307-.243.46-.609.46-1.096v-.524a4.026 4.026 0 0 1-1.032.493c-.37.116-.751.174-1.143.174Zm-1.747-4.287c0 .604.212 1.112.635 1.525.424.402.942.603 1.556.603.35 0 .667-.053.953-.159.296-.106.556-.26.778-.46v-2.97a2.447 2.447 0 0 0-.778-.444 2.54 2.54 0 0 0-.937-.175 2.23 2.23 0 0 0-1.572.604 1.958 1.958 0 0 0-.635 1.476ZM83.439 13.618c-.53.445-1.074.768-1.635.969-.55.2-1.175.301-1.874.301a4.826 4.826 0 0 1-1.794-.333 4.512 4.512 0 0 1-1.461-.92 4.58 4.58 0 0 1-.969-1.382 4.283 4.283 0 0 1-.349-1.715c0-.604.111-1.17.333-1.7.233-.539.546-1.005.937-1.396a4.27 4.27 0 0 1 1.382-.921 4.5 4.5 0 0 1 1.73-.334 4.1 4.1 0 0 1 1.7.35c.518.232.963.55 1.333.952.381.402.677.89.89 1.461a5.13 5.13 0 0 1 .317 1.826v.635h-5.986c.17.392.434.715.794.969.36.243.783.365 1.27.365.35 0 .667-.053.953-.159.285-.116.529-.275.73-.476l1.699 1.508Zm-3.747-5.335a1.76 1.76 0 0 0-1.096.35c-.307.232-.524.56-.65.984h3.508a2.006 2.006 0 0 0-.683-.969 1.686 1.686 0 0 0-1.08-.365ZM87.865 14.873c-.89 0-1.62-.244-2.192-.73-.571-.488-.857-1.112-.857-1.875 0-.793.302-1.413.905-1.857.614-.445 1.466-.667 2.556-.667.329 0 .651.021.969.063.318.043.63.101.937.175V9.57c0-.423-.138-.735-.413-.937-.265-.211-.662-.317-1.19-.317-.33 0-.7.053-1.112.159-.413.106-.89.275-1.43.508l-.92-1.89a10.518 10.518 0 0 1 1.984-.682 8.219 8.219 0 0 1 1.938-.239c1.164 0 2.069.28 2.715.842.645.55.968 1.328.968 2.334v5.383h-2.54v-.508a3.594 3.594 0 0 1-1.08.508c-.37.095-.783.143-1.238.143Zm-.604-2.652c0 .264.117.471.35.62.232.147.555.221.968.221.307 0 .593-.031.858-.095.275-.063.523-.164.746-.302v-1.08a5.799 5.799 0 0 0-.747-.142 6.258 6.258 0 0 0-.778-.048c-.444 0-.788.074-1.032.223-.243.137-.365.338-.365.603ZM94.252 14.73v-8.4h2.572v.842a2.92 2.92 0 0 1 .969-.762c.37-.18.783-.27 1.238-.27.244.01.44.031.588.063a.868.868 0 0 1 .381.143v2.239a2.79 2.79 0 0 0-.572-.175 2.674 2.674 0 0 0-.65-.08c-.403 0-.779.096-1.128.287-.339.19-.614.45-.826.778v5.335h-2.572Z" fill="#000"/></svg>