<svg width="100" height="19" viewBox="0 0 100 19" fill="none" xmlns="http://www.w3.org/2000/svg">
<path fill-rule="evenodd" clip-rule="evenodd" d="M10.8584 0C10.6802 0 10.4964 0.00741144 10.3274 0.0144549L10.3261 0.0145066L10.3249 0.0145671C6.40499 0.205826 3.04441 2.86862 1.95585 6.64841C1.71317 7.4726 1.58848 8.33241 1.58114 9.19849L1.58113 9.19998V9.26514C1.58113 9.97834 1.73728 10.7883 1.85859 11.3236L1.85944 11.3274L1.86038 11.3311C1.86948 11.3676 1.88042 11.4031 1.89748 11.4426C1.97073 11.7204 2.05443 11.9943 2.15278 12.2683C2.00686 12.5533 1.73703 12.9908 1.42004 13.4737C1.06079 14.0209 0.656856 14.6028 0.345311 15.0373C0.325133 15.0627 0.31265 15.0845 0.307811 15.093C0.30266 15.102 0.297897 15.111 0.294256 15.1181C-0.0982517 15.7795 -0.0940876 16.6093 0.282813 17.2711L0.283164 17.2717L0.283517 17.2723C0.671012 17.9464 1.38762 18.3605 2.15702 18.3605H10.2285L10.2441 18.3611C10.4045 18.3678 10.5674 18.3746 10.731 18.3746C13.1861 18.3746 15.4961 17.4253 17.2454 15.683C18.9942 13.9483 19.9653 11.6383 19.98 9.1894L19.98 9.18835V9.12362C19.98 8.64035 19.9123 8.05659 19.7745 7.39644L19.7704 7.37659L19.764 7.35736C19.764 7.35736 19.7638 7.35698 19.7635 7.35592C19.7632 7.35487 19.7627 7.35346 19.7622 7.35156C19.761 7.34751 19.7597 7.34299 19.7578 7.33648L19.7573 7.33451C19.7556 7.32856 19.7532 7.32017 19.7504 7.31083C19.6792 6.95343 19.5812 6.5983 19.4663 6.25479C19.4768 6.22816 19.4851 6.20269 19.4919 6.17919C19.5133 6.10831 19.5853 5.95593 19.7144 5.72691C19.8385 5.50679 20 5.24212 20.1792 4.96039C20.5372 4.39732 20.9584 3.77774 21.2739 3.3324L21.2894 3.31056L21.2952 3.2988C21.3 3.2915 21.3071 3.28011 21.3148 3.2661C21.7085 2.59794 21.7052 1.77463 21.3287 1.10513C20.9475 0.427249 20.2287 0.0141518 19.4536 0.0141518H11.3609L11.3454 0.0135054C11.1849 0.00680133 11.022 0 10.8584 0ZM3.57475 7.05712C4.46745 3.98573 7.20628 1.82301 10.4149 1.66805C10.5719 1.66091 10.7193 1.65428 10.8584 1.65428C10.9974 1.65428 11.1451 1.66092 11.2945 1.66804L11.3028 1.66843H19.4677C19.6429 1.66843 19.8114 1.76781 19.8995 1.92304C19.9848 2.07343 19.9873 2.25457 19.9068 2.40672C19.5318 2.93738 19.2062 3.50173 18.8911 4.04807L18.8829 4.06227C18.5594 4.62303 18.2465 5.16438 17.89 5.66373C17.7203 5.89582 17.6864 6.18791 17.781 6.44806L17.782 6.4509L17.7831 6.45372C17.9381 6.85816 18.0604 7.29221 18.149 7.72847L18.1505 7.73611L18.1524 7.74366C18.1574 7.76361 18.1623 7.78081 18.1657 7.79275L18.166 7.79383C18.1673 7.79838 18.1684 7.80221 18.1694 7.80561C18.1703 7.80877 18.171 7.81155 18.1717 7.81419C18.2741 8.33515 18.3259 8.78857 18.3259 9.1307V9.18626C18.2982 13.3379 14.8894 16.7203 10.7381 16.7203C10.599 16.7203 10.4514 16.7137 10.302 16.7066L10.2937 16.7062H2.16409C1.98335 16.7062 1.81767 16.609 1.73236 16.4586L1.73134 16.4568L1.73029 16.4551C1.6487 16.3152 1.64297 16.1344 1.72038 15.9786C1.73185 15.9623 1.74446 15.9445 1.75815 15.9251C1.95857 15.6417 2.38818 15.0341 2.80471 14.3994C3.03292 14.0517 3.2596 13.6922 3.44364 13.3708C3.62085 13.0614 3.7752 12.7592 3.84217 12.5313C3.90252 12.3442 3.88927 12.1475 3.81725 11.9765C3.68296 11.6402 3.57484 11.2957 3.4865 10.9423L3.48325 10.9293L3.46358 10.8702C3.32041 10.2184 3.24933 9.67188 3.24933 9.26514V9.21022C3.25625 8.49904 3.35786 7.79615 3.56029 7.1145L3.57475 7.06581V7.05712Z" fill="#0043E0"/>
<path fill-rule="evenodd" clip-rule="evenodd" d="M7.65932 9.27929C7.65932 11.0272 9.08254 12.4507 10.8301 12.4507C12.5776 12.4507 14.0008 11.0272 14.0008 9.27929C14.0008 7.53142 12.5776 6.10784 10.8301 6.10784C9.08254 6.10784 7.65932 7.53142 7.65932 9.27929ZM9.37207 9.27929C9.37207 8.47124 10.0223 7.82094 10.8301 7.82094C11.6271 7.82094 12.2881 8.4717 12.2881 9.27929C12.2881 10.0873 11.6379 10.7376 10.8301 10.7376C10.0223 10.7376 9.37207 10.0873 9.37207 9.27929Z" fill="#0043E0"/>
<path d="M10.2279 4.72775C10.693 4.66876 11.0222 4.24392 10.9632 3.77886C10.9042 3.31379 10.4794 2.9846 10.0143 3.04359C9.46067 3.11382 8.91766 3.25762 8.39988 3.47209C7.63727 3.78798 6.94434 4.25098 6.36067 4.83466C6.02918 5.16614 6.02918 5.70359 6.36067 6.03508C6.69215 6.36657 7.2296 6.36657 7.56109 6.03508C7.98712 5.60904 8.4929 5.27109 9.04955 5.04052C9.42748 4.88398 9.82383 4.77901 10.2279 4.72775Z" fill="#0043E0"/>
<path d="M11.8348 3.87376C11.9925 3.43228 12.4782 3.20223 12.9197 3.35993C14.1405 3.79601 15.1967 4.59889 15.9434 5.65858C16.6901 6.71827 17.091 7.98293 17.091 9.27929C17.091 9.74809 16.7109 10.1281 16.2421 10.1281C15.7733 10.1281 15.3933 9.74809 15.3933 9.27929C15.3933 8.33305 15.1007 7.40996 14.5557 6.63647C14.0106 5.86299 13.2397 5.27695 12.3486 4.95865C11.9072 4.80096 11.6771 4.31523 11.8348 3.87376Z" fill="#0043E0"/>
<path d="M15.91 11.334C16.3127 11.5741 16.4445 12.0951 16.2045 12.4978C15.8766 13.0478 15.4686 13.5412 14.997 13.9633C14.6476 14.2759 14.111 14.2461 13.7984 13.8968C13.4858 13.5474 13.5155 13.0108 13.8649 12.6982C14.2092 12.3901 14.5069 12.03 14.7462 11.6285C14.9863 11.2258 15.5073 11.094 15.91 11.334Z" fill="#0043E0"/>
<path d="M7.7604 13.8628C7.95647 13.4369 8.46061 13.2507 8.88643 13.4468C9.65656 13.8014 10.5099 13.9356 11.3517 13.8347C11.8172 13.7788 12.2397 14.1109 12.2956 14.5763C12.3514 15.0418 12.0193 15.4644 11.5539 15.5202C10.4006 15.6586 9.2315 15.4746 8.17641 14.9888C7.75059 14.7927 7.56433 14.2886 7.7604 13.8628Z" fill="#0043E0"/>
<path d="M6.4309 7.89565C6.57228 7.44868 6.32455 6.97173 5.87758 6.83035C5.43062 6.68897 4.95367 6.9367 4.81229 7.38367C4.57108 8.14624 4.47705 8.94975 4.53737 9.75111C4.57256 10.2186 4.98005 10.569 5.44752 10.5338C5.91499 10.4986 6.26542 10.0911 6.23024 9.62368C6.18621 9.03876 6.25484 8.45226 6.4309 7.89565Z" fill="#0043E0"/>
<path d="M26.4391 14.7296L30.9961 3.615H34.124L38.6175 14.7296H35.6642L34.648 12.0463H30.3133L29.2812 14.7296H26.4391ZM31.139 9.87096H33.8382L32.5045 6.31427L31.139 9.87096Z" fill="black"/>
<path d="M41.4978 6.33015V11.1571C41.4978 11.6123 41.6354 11.9827 41.9106 12.2685C42.1964 12.5438 42.5669 12.6814 43.0221 12.6814C43.3502 12.6814 43.6413 12.6232 43.8954 12.5067C44.1494 12.3903 44.3611 12.2262 44.5305 12.0145V6.33015H47.1027V14.7296H44.5305V14.158C44.2235 14.3909 43.8742 14.5709 43.4825 14.6979C43.1015 14.8249 42.6992 14.8884 42.2758 14.8884C41.2914 14.8884 40.4869 14.5709 39.8624 13.9357C39.2378 13.3006 38.9255 12.4908 38.9255 11.5064V6.33015H41.4978Z" fill="black"/>
<path d="M49.8866 12.1733V8.47369H48.1877V6.33015H49.8866V4.17073L52.4589 3.615V6.33015H54.8088V8.47369H52.4589V11.6652C52.4589 12.0357 52.5383 12.3003 52.697 12.4591C52.8664 12.6073 53.1575 12.6814 53.5703 12.6814C53.7714 12.6814 53.962 12.6708 54.1419 12.6496C54.3219 12.6179 54.5177 12.5702 54.7294 12.5067V14.5867C54.4965 14.6608 54.2002 14.7191 53.8403 14.7614C53.4803 14.8143 53.1787 14.8408 52.9352 14.8408C51.9296 14.8408 51.1674 14.6185 50.6488 14.1739C50.1407 13.7187 49.8866 13.0519 49.8866 12.1733Z" fill="black"/>
<path d="M55.813 14.7296V3.615L58.3852 3.05927V6.90176C58.6922 6.66888 59.0362 6.48893 59.4173 6.36191C59.809 6.23488 60.2165 6.17137 60.6399 6.17137C61.6243 6.17137 62.4288 6.48893 63.0534 7.12405C63.6779 7.75918 63.9902 8.56896 63.9902 9.5534V14.7296H61.4179V9.90271C61.4179 9.44754 61.275 9.08235 60.9892 8.80713C60.714 8.52132 60.3488 8.37842 59.8936 8.37842C59.5655 8.37842 59.2744 8.43664 59.0203 8.55308C58.7663 8.66952 58.5546 8.83359 58.3852 9.0453V14.7296H55.813Z" fill="black"/>
<path d="M69.4098 14.7614C68.817 14.7614 68.256 14.6503 67.7267 14.428C67.208 14.2057 66.7582 13.904 66.3771 13.5229C65.996 13.1313 65.6943 12.6761 65.472 12.1574C65.2498 11.6281 65.1386 11.0671 65.1386 10.4743C65.1386 9.88154 65.2498 9.32581 65.472 8.80713C65.7049 8.28844 66.0172 7.83857 66.4089 7.45749C66.8005 7.07642 67.261 6.77474 67.7902 6.55244C68.3301 6.33015 68.9017 6.219 69.5051 6.219C69.8861 6.219 70.2566 6.26664 70.6165 6.36191C70.9764 6.45718 71.3099 6.59478 71.6169 6.77474V6.33015H74.1573V14.6503C74.1573 15.7829 73.7816 16.6509 73.03 17.2543C72.2784 17.8682 71.204 18.1752 69.8068 18.1752C69.1399 18.1752 68.4995 18.1117 67.8855 17.9846C67.2716 17.8576 66.7158 17.6777 66.2183 17.4448L67.0757 15.4442C67.5309 15.6559 67.9808 15.8146 68.4254 15.9205C68.8699 16.0264 69.3145 16.0793 69.7591 16.0793C70.3625 16.0793 70.8177 15.9575 71.1246 15.7141C71.4316 15.4706 71.5851 15.1054 71.5851 14.6185V14.0945C71.2675 14.3062 70.9235 14.4703 70.553 14.5867C70.1825 14.7032 69.8015 14.7614 69.4098 14.7614ZM67.6632 10.4743C67.6632 11.0777 67.8749 11.5858 68.2983 11.9986C68.7218 12.4009 69.2404 12.602 69.8544 12.602C70.2037 12.602 70.5213 12.5491 70.8071 12.4432C71.1035 12.3373 71.3628 12.1839 71.5851 11.9827V9.01354C71.3628 8.82301 71.1035 8.67481 70.8071 8.56896C70.5107 8.45252 70.1984 8.3943 69.8703 8.3943C69.2563 8.3943 68.7323 8.59542 68.2983 8.99766C67.8749 9.39991 67.6632 9.89213 67.6632 10.4743Z" fill="black"/>
<path d="M83.4389 13.6182C82.9097 14.0628 82.3645 14.3856 81.8035 14.5867C81.2531 14.7879 80.6285 14.8884 79.9299 14.8884C79.2948 14.8884 78.6967 14.7773 78.1357 14.555C77.5746 14.3327 77.0877 14.0257 76.6749 13.6341C76.2726 13.2424 75.9498 12.7819 75.7063 12.2527C75.4734 11.7128 75.357 11.1412 75.357 10.5378C75.357 9.93447 75.4682 9.36815 75.6904 8.83888C75.9233 8.29903 76.2356 7.83327 76.6273 7.44162C77.0189 7.04996 77.4794 6.74298 78.0086 6.52069C78.5485 6.29839 79.1254 6.18725 79.7394 6.18725C80.3533 6.18725 80.9196 6.30369 81.4383 6.53657C81.957 6.76944 82.4016 7.08701 82.7721 7.48925C83.1531 7.89149 83.4495 8.37842 83.6612 8.95003C83.8729 9.51106 83.9788 10.1197 83.9788 10.776V11.4111H77.9928C78.1621 11.8028 78.4268 12.1256 78.7867 12.3797C79.1466 12.6232 79.57 12.7449 80.0569 12.7449C80.4062 12.7449 80.7238 12.692 81.0096 12.5861C81.2954 12.4697 81.5389 12.3109 81.74 12.1098L83.4389 13.6182ZM79.6917 8.28315C79.2683 8.28315 78.9031 8.39959 78.5961 8.63247C78.2892 8.86535 78.0722 9.19349 77.9451 9.61691H81.4542C81.3166 9.21466 81.089 8.89181 80.7714 8.64835C80.4644 8.40488 80.1045 8.28315 79.6917 8.28315Z" fill="black"/>
<path d="M87.8646 14.8725C86.9754 14.8725 86.245 14.6291 85.6734 14.1422C85.1018 13.6552 84.816 13.0307 84.816 12.2685C84.816 11.4746 85.1177 10.8554 85.721 10.4108C86.335 9.96623 87.1871 9.74393 88.2774 9.74393C88.6056 9.74393 88.9284 9.7651 89.246 9.80745C89.5635 9.84979 89.8758 9.90801 90.1828 9.9821V9.56927C90.1828 9.14586 90.0452 8.83359 89.7699 8.63247C89.5053 8.42076 89.1084 8.31491 88.5791 8.31491C88.2509 8.31491 87.8805 8.36784 87.4676 8.47369C87.0548 8.57954 86.5785 8.74891 86.0386 8.98179L85.1177 7.0923C85.7951 6.78532 86.4567 6.55774 87.1024 6.40954C87.7587 6.25076 88.4044 6.17137 89.0396 6.17137C90.2039 6.17137 91.109 6.45188 91.7547 7.01291C92.4004 7.56335 92.7233 8.34137 92.7233 9.34698V14.7296H90.1828V14.2215C89.844 14.4544 89.4841 14.6238 89.1031 14.7296C88.7326 14.8249 88.3197 14.8725 87.8646 14.8725ZM87.2612 12.2209C87.2612 12.4855 87.3777 12.692 87.6105 12.8402C87.8434 12.9883 88.1663 13.0624 88.5791 13.0624C88.8861 13.0624 89.1719 13.0307 89.4365 12.9672C89.7117 12.9037 89.9605 12.8031 90.1828 12.6655V11.5858C89.9393 11.5223 89.6906 11.4746 89.4365 11.4429C89.1825 11.4111 88.9231 11.3953 88.6585 11.3953C88.2139 11.3953 87.8699 11.4693 87.6264 11.6175C87.3829 11.7552 87.2612 11.9563 87.2612 12.2209Z" fill="black"/>
<path d="M94.2521 14.7296V6.33015H96.8244V7.17169C97.0996 6.84354 97.4225 6.58949 97.793 6.40954C98.1634 6.22959 98.5763 6.13961 99.0314 6.13961C99.2749 6.1502 99.4707 6.17137 99.6189 6.20313C99.7671 6.2243 99.8941 6.27193 100 6.34603V8.58484C99.8306 8.51074 99.6401 8.45252 99.4284 8.41018C99.2167 8.35725 98.9997 8.33079 98.7774 8.33079C98.3751 8.33079 97.9994 8.42605 97.6501 8.61659C97.3113 8.80713 97.0361 9.06647 96.8244 9.39462V14.7296H94.2521Z" fill="black"/>
</svg>
